<svg xmlns="http://www.w3.org/2000/svg" xmlns:xlink="http://www.w3.org/1999/xlink" width="500" zoomAndPan="magnify" viewBox="0 0 375 374.999991" height="500" preserveAspectRatio="xMidYMid meet" version="1.0"><defs><g/></defs><g fill="#ffffff" fill-opacity="1"><g transform="translate(34.113715, 331.651853)"><g><path d="M 23.6875 -234.414062 L 123.394531 -234.414062 L 123.394531 -279.667969 C 123.394531 -281.085938 122.332031 -282.851562 119.859375 -282.851562 L 23.6875 -282.851562 C 21.214844 -282.851562 19.800781 -281.085938 19.800781 -279.667969 L 19.800781 -237.59375 C 19.800781 -236.179688 21.214844 -234.414062 23.6875 -234.414062 Z M 69.652344 -185.976562 L 69.652344 -83.441406 C 69.652344 -83.441406 69.652344 -52.328125 38.890625 -52.328125 L 3.890625 -52.328125 C 1.769531 -52.328125 0 -50.914062 0 -49.144531 L 0 -3.183594 C 0 -1.769531 1.769531 0 3.890625 0 L 38.890625 0 C 38.890625 0 123.394531 0 123.394531 -83.441406 L 123.394531 -185.976562 Z M 69.652344 -185.976562 "/></g></g></g><g fill="#ffffff" fill-opacity="1"><g transform="translate(175.629031, 335.110848)"><g><path d="M 167.390625 -169.902344 L 54.839844 -169.902344 L 54.839844 -234.777344 L 136.207031 -234.777344 L 136.207031 -286.753906 L 3.941406 -286.753906 C 1.792969 -286.753906 0 -284.960938 0 -283.527344 L 0 -3.226562 C 0 -1.792969 1.792969 0 3.941406 0 L 54.839844 0 L 54.839844 -117.925781 L 167.390625 -117.925781 C 169.542969 -117.925781 171.335938 -119.71875 171.335938 -121.152344 L 171.335938 -166.675781 C 171.335938 -168.46875 169.542969 -169.902344 167.390625 -169.902344 Z M 167.390625 -169.902344 "/></g></g></g></svg>